<svg width="32" height="32" viewBox="0 0 32 32" fill="none" xmlns="http://www.w3.org/2000/svg">
<g clip-path="url(#clip0_5803_255)">
<path d="M15.9989 29.9978C25.3333 29.9978 29.9978 23.7303 29.9978 15.9989C29.9978 8.26751 25.3333 2 15.9989 2C6.66443 2 2 8.26751 2 15.9989C2 23.7303 6.66443 29.9978 15.9989 29.9978Z" fill="url(#paint0_radial_5803_255)"/>
<path d="M15.9989 29.9978C25.3333 29.9978 29.9978 23.7303 29.9978 15.9989C29.9978 8.26751 25.3333 2 15.9989 2C6.66443 2 2 8.26751 2 15.9989C2 23.7303 6.66443 29.9978 15.9989 29.9978Z" fill="url(#paint1_radial_5803_255)"/>
<path d="M15.9989 29.9978C25.3333 29.9978 29.9978 23.7303 29.9978 15.9989C29.9978 8.26751 25.3333 2 15.9989 2C6.66443 2 2 8.26751 2 15.9989C2 23.7303 6.66443 29.9978 15.9989 29.9978Z" fill="url(#paint2_radial_5803_255)" fill-opacity="0.6"/>
<path d="M15.9989 29.9978C25.3333 29.9978 29.9978 23.7303 29.9978 15.9989C29.9978 8.26751 25.3333 2 15.9989 2C6.66443 2 2 8.26751 2 15.9989C2 23.7303 6.66443 29.9978 15.9989 29.9978Z" fill="url(#paint3_radial_5803_255)"/>
<path d="M15.9989 29.9978C25.3333 29.9978 29.9978 23.7303 29.9978 15.9989C29.9978 8.26751 25.3333 2 15.9989 2C6.66443 2 2 8.26751 2 15.9989C2 23.7303 6.66443 29.9978 15.9989 29.9978Z" fill="url(#paint4_radial_5803_255)"/>
<path d="M15.9989 29.9978C25.3333 29.9978 29.9978 23.7303 29.9978 15.9989C29.9978 8.26751 25.3333 2 15.9989 2C6.66443 2 2 8.26751 2 15.9989C2 23.7303 6.66443 29.9978 15.9989 29.9978Z" fill="url(#paint5_radial_5803_255)"/>
<path d="M15.9989 29.9978C25.3333 29.9978 29.9978 23.7303 29.9978 15.9989C29.9978 8.26751 25.3333 2 15.9989 2C6.66443 2 2 8.26751 2 15.9989C2 23.7303 6.66443 29.9978 15.9989 29.9978Z" fill="url(#paint6_radial_5803_255)"/>
<path d="M15.9989 29.9978C25.3333 29.9978 29.9978 23.7303 29.9978 15.9989C29.9978 8.26751 25.3333 2 15.9989 2C6.66443 2 2 8.26751 2 15.9989C2 23.7303 6.66443 29.9978 15.9989 29.9978Z" fill="url(#paint7_radial_5803_255)"/>
<path d="M15.9989 29.9978C25.3333 29.9978 29.9978 23.7303 29.9978 15.9989C29.9978 8.26751 25.3333 2 15.9989 2C6.66443 2 2 8.26751 2 15.9989C2 23.7303 6.66443 29.9978 15.9989 29.9978Z" fill="url(#paint8_radial_5803_255)"/>
<path d="M15.9989 29.9978C25.3333 29.9978 29.9978 23.7303 29.9978 15.9989C29.9978 8.26751 25.3333 2 15.9989 2C6.66443 2 2 8.26751 2 15.9989C2 23.7303 6.66443 29.9978 15.9989 29.9978Z" fill="url(#paint9_radial_5803_255)"/>
<path d="M15.9989 29.9978C25.3333 29.9978 29.9978 23.7303 29.9978 15.9989C29.9978 8.26751 25.3333 2 15.9989 2C6.66443 2 2 8.26751 2 15.9989C2 23.7303 6.66443 29.9978 15.9989 29.9978Z" fill="url(#paint10_radial_5803_255)"/>
<path d="M15.9989 29.9978C25.3333 29.9978 29.9978 23.7303 29.9978 15.9989C29.9978 8.26751 25.3333 2 15.9989 2C6.66443 2 2 8.26751 2 15.9989C2 23.7303 6.66443 29.9978 15.9989 29.9978Z" fill="url(#paint11_radial_5803_255)" fill-opacity="0.6"/>
<path d="M15.9989 29.9978C25.3333 29.9978 29.9978 23.7303 29.9978 15.9989C29.9978 8.26751 25.3333 2 15.9989 2C6.66443 2 2 8.26751 2 15.9989C2 23.7303 6.66443 29.9978 15.9989 29.9978Z" fill="url(#paint12_radial_5803_255)"/>
<path d="M15.9989 29.9978C25.3333 29.9978 29.9978 23.7303 29.9978 15.9989C29.9978 8.26751 25.3333 2 15.9989 2C6.66443 2 2 8.26751 2 15.9989C2 23.7303 6.66443 29.9978 15.9989 29.9978Z" fill="url(#paint13_radial_5803_255)"/>
<path d="M15.9989 29.9978C25.3333 29.9978 29.9978 23.7303 29.9978 15.9989C29.9978 8.26751 25.3333 2 15.9989 2C6.66443 2 2 8.26751 2 15.9989C2 23.7303 6.66443 29.9978 15.9989 29.9978Z" fill="url(#paint14_radial_5803_255)"/>
<path d="M15.9989 29.9978C25.3333 29.9978 29.9978 23.7303 29.9978 15.9989C29.9978 8.26751 25.3333 2 15.9989 2C6.66443 2 2 8.26751 2 15.9989C2 23.7303 6.66443 29.9978 15.9989 29.9978Z" fill="url(#paint15_radial_5803_255)"/>
<path d="M15.9989 29.9978C25.3333 29.9978 29.9978 23.7303 29.9978 15.9989C29.9978 8.26751 25.3333 2 15.9989 2C6.66443 2 2 8.26751 2 15.9989C2 23.7303 6.66443 29.9978 15.9989 29.9978Z" fill="url(#paint16_radial_5803_255)"/>
<path d="M15.9989 29.9978C25.3333 29.9978 29.9978 23.7303 29.9978 15.9989C29.9978 8.26751 25.3333 2 15.9989 2C6.66443 2 2 8.26751 2 15.9989C2 23.7303 6.66443 29.9978 15.9989 29.9978Z" fill="url(#paint17_radial_5803_255)"/>
<path fill-rule="evenodd" clip-rule="evenodd" d="M7.697 14.2829C7.30573 13.9024 6.68007 13.9057 6.29289 14.2929C5.90237 14.6834 5.90237 15.3166 6.29289 15.7071L6.29432 15.7085L6.29585 15.7101L6.29922 15.7134L6.30713 15.7211L6.32778 15.7408C6.34367 15.7557 6.36387 15.7741 6.38837 15.7955C6.43735 15.8384 6.5037 15.8934 6.5875 15.9562C6.75496 16.0818 6.99328 16.2397 7.30279 16.3944C7.92507 16.7056 8.82724 17 10 17C11.1728 17 12.0749 16.7056 12.6972 16.3944C13.0067 16.2397 13.245 16.0818 13.4125 15.9562C13.4963 15.8934 13.5627 15.8384 13.6116 15.7955C13.6361 15.7741 13.6563 15.7557 13.6722 15.7408L13.6929 15.7211L13.7008 15.7134L13.7041 15.7101L13.7057 15.7085L13.7064 15.7078C14.0969 15.3173 14.0976 14.6834 13.7071 14.2929C13.3199 13.9057 12.6943 13.9024 12.303 14.2829C12.3015 14.2843 12.2987 14.2868 12.2946 14.2904C12.2811 14.3022 12.2537 14.3253 12.2125 14.3562C12.13 14.4182 11.9933 14.5103 11.8028 14.6056C11.4251 14.7944 10.8272 15 10 15C9.17276 15 8.57493 14.7944 8.19721 14.6056C8.00672 14.5103 7.87004 14.4182 7.7875 14.3562C7.7463 14.3253 7.7189 14.3022 7.70538 14.2904C7.70132 14.2868 7.69852 14.2843 7.697 14.2829Z" fill="url(#paint18_linear_5803_255)"/>
<path fill-rule="evenodd" clip-rule="evenodd" d="M19.697 14.2829C19.3057 13.9024 18.6801 13.9057 18.2929 14.2929C17.9024 14.6834 17.9024 15.3166 18.2929 15.7071L18.2943 15.7085L18.2959 15.7101L18.2992 15.7134L18.3071 15.7211L18.3278 15.7408C18.3437 15.7557 18.3639 15.7741 18.3884 15.7955C18.4373 15.8384 18.5037 15.8934 18.5875 15.9562C18.755 16.0818 18.9933 16.2397 19.3028 16.3944C19.9251 16.7056 20.8272 17 22 17C23.1728 17 24.0749 16.7056 24.6972 16.3944C25.0067 16.2397 25.245 16.0818 25.4125 15.9562C25.4963 15.8934 25.5627 15.8384 25.6116 15.7955C25.6361 15.7741 25.6563 15.7557 25.6722 15.7408L25.6929 15.7211L25.7008 15.7134L25.7041 15.7101L25.7057 15.7085L25.7064 15.7078C26.0969 15.3173 26.0976 14.6834 25.7071 14.2929C25.3199 13.9057 24.6943 13.9024 24.303 14.2829C24.3015 14.2843 24.2987 14.2868 24.2946 14.2904C24.2811 14.3022 24.2537 14.3253 24.2125 14.3562C24.13 14.4182 23.9933 14.5103 23.8028 14.6056C23.4251 14.7944 22.8272 15 22 15C21.1728 15 20.5749 14.7944 20.1972 14.6056C20.0067 14.5103 19.87 14.4182 19.7875 14.3562C19.7463 14.3253 19.7189 14.3022 19.7054 14.2904C19.7013 14.2868 19.6985 14.2843 19.697 14.2829Z" fill="url(#paint19_linear_5803_255)"/>
<path d="M16.2317 29.5239C25.1489 29.5239 29.6049 23.5364 29.6049 16.1506C29.6049 8.76475 25.1489 2.77734 16.2317 2.77734C7.31437 2.77734 2.8584 8.76475 2.8584 16.1506C2.8584 23.5364 7.31437 29.5239 16.2317 29.5239Z" fill="#FFA14D"/>
<path d="M16.2317 29.5239C25.1489 29.5239 29.6049 23.5364 29.6049 16.1506C29.6049 8.76475 25.1489 2.77734 16.2317 2.77734C7.31437 2.77734 2.8584 8.76475 2.8584 16.1506C2.8584 23.5364 7.31437 29.5239 16.2317 29.5239Z" fill="url(#paint20_radial_5803_255)"/>
<path d="M16.2317 29.5239C25.1489 29.5239 29.6049 23.5364 29.6049 16.1506C29.6049 8.76475 25.1489 2.77734 16.2317 2.77734C7.31437 2.77734 2.8584 8.76475 2.8584 16.1506C2.8584 23.5364 7.31437 29.5239 16.2317 29.5239Z" fill="url(#paint21_radial_5803_255)"/>
<path d="M16.2317 29.5239C25.1489 29.5239 29.6049 23.5364 29.6049 16.1506C29.6049 8.76475 25.1489 2.77734 16.2317 2.77734C7.31437 2.77734 2.8584 8.76475 2.8584 16.1506C2.8584 23.5364 7.31437 29.5239 16.2317 29.5239Z" fill="url(#paint22_radial_5803_255)"/>
<path d="M16.2317 29.5239C25.1489 29.5239 29.6049 23.5364 29.6049 16.1506C29.6049 8.76475 25.1489 2.77734 16.2317 2.77734C7.31437 2.77734 2.8584 8.76475 2.8584 16.1506C2.8584 23.5364 7.31437 29.5239 16.2317 29.5239Z" fill="url(#paint23_radial_5803_255)"/>
<circle cx="10.8346" cy="14.695" r="4.37465" fill="white"/>
<circle cx="21.6315" cy="14.695" r="4.37465" fill="white"/>
<circle cx="11.284" cy="15.1404" r="2.18732" fill="#3D262E"/>
<circle cx="21.1815" cy="15.1404" r="2.18732" fill="#3D262E"/>
<circle cx="6.74652" cy="26.6" r="4.53753" fill="url(#paint24_radial_5803_255)"/>
<circle cx="6.74652" cy="26.6" r="4.53753" fill="url(#paint25_radial_5803_255)"/>
<circle cx="6.62972" cy="22.4608" r="5.42953" fill="#DCD2E7"/>
<circle cx="6.62972" cy="22.4608" r="5.42953" fill="url(#paint26_radial_5803_255)"/>
<circle cx="6.62972" cy="22.4608" r="5.42953" fill="url(#paint27_radial_5803_255)"/>
<circle cx="6.62972" cy="22.4608" r="5.42953" fill="url(#paint28_radial_5803_255)"/>
<circle cx="6.62972" cy="22.4608" r="5.42953" fill="url(#paint29_radial_5803_255)"/>
<circle cx="6.62972" cy="22.4608" r="5.42953" fill="url(#paint30_radial_5803_255)"/>
<circle cx="6.62972" cy="22.4608" r="5.42953" fill="url(#paint31_radial_5803_255)"/>
<circle cx="6.62972" cy="22.4608" r="5.42953" fill="url(#paint32_radial_5803_255)"/>
<circle cx="6.62972" cy="22.4608" r="5.42953" fill="url(#paint33_radial_5803_255)"/>
<circle cx="4.51251" cy="16.2371" r="3.40509" fill="#DAD0E5"/>
<circle cx="4.51251" cy="16.2371" r="3.40509" fill="url(#paint34_radial_5803_255)"/>
<circle cx="4.51251" cy="16.2371" r="3.40509" fill="url(#paint35_radial_5803_255)"/>
<circle cx="4.51251" cy="16.2371" r="3.40509" fill="url(#paint36_radial_5803_255)"/>
<circle cx="4.51251" cy="16.2371" r="3.40509" fill="url(#paint37_radial_5803_255)"/>
<circle cx="4.51251" cy="16.2371" r="3.40509" fill="url(#paint38_radial_5803_255)"/>
<circle cx="6.80097" cy="6.22285" r="4.84003" fill="#DAD4E2"/>
<circle cx="6.80097" cy="6.22285" r="4.84003" fill="url(#paint39_radial_5803_255)"/>
<circle cx="6.80097" cy="6.22285" r="4.84003" fill="url(#paint40_radial_5803_255)"/>
<circle cx="6.80097" cy="6.22285" r="4.84003" fill="url(#paint41_radial_5803_255)"/>
<circle cx="6.80097" cy="6.22285" r="4.84003" fill="url(#paint42_radial_5803_255)"/>
<circle cx="19.6147" cy="5.50824" r="4.26606" fill="#DAD4E2"/>
<circle cx="19.6147" cy="5.50824" r="4.26606" fill="url(#paint43_radial_5803_255)"/>
<circle cx="19.6147" cy="5.50824" r="4.26606" fill="url(#paint44_radial_5803_255)"/>
<circle cx="19.6147" cy="5.50824" r="4.26606" fill="url(#paint45_radial_5803_255)"/>
<circle cx="19.6147" cy="5.50824" r="4.26606" fill="url(#paint46_radial_5803_255)"/>
<circle cx="13.5727" cy="5.03464" r="4.39792" fill="#DAD4E2"/>
<circle cx="13.5727" cy="5.03464" r="4.39792" fill="url(#paint47_radial_5803_255)"/>
<circle cx="13.5727" cy="5.03464" r="4.39792" fill="url(#paint48_radial_5803_255)"/>
<circle cx="13.5727" cy="5.03464" r="4.39792" fill="url(#paint49_radial_5803_255)"/>
<circle cx="13.5727" cy="5.03464" r="4.39792" fill="url(#paint50_radial_5803_255)"/>
<circle cx="13.5727" cy="5.03464" r="4.39792" fill="url(#paint51_radial_5803_255)"/>
<circle cx="27.7046" cy="11.9312" r="3.57573" fill="#DAD4E2"/>
<circle cx="27.7046" cy="11.9312" r="3.57573" fill="url(#paint52_radial_5803_255)"/>
<circle cx="27.7046" cy="11.9312" r="3.57573" fill="url(#paint53_radial_5803_255)"/>
<circle cx="27.7046" cy="11.9312" r="3.57573" fill="url(#paint54_radial_5803_255)"/>
<circle cx="25.8586" cy="6.67891" r="5.51485" fill="#DAD4E2"/>
<circle cx="25.8586" cy="6.67891" r="5.51485" fill="url(#paint55_radial_5803_255)"/>
<circle cx="25.8586" cy="6.67891" r="5.51485" fill="url(#paint56_radial_5803_255)"/>
<circle cx="25.8586" cy="6.67891" r="5.51485" fill="url(#paint57_radial_5803_255)"/>
<circle cx="27.3551" cy="21.2994" r="3.97131" fill="#DAD4E2"/>
<circle cx="27.3551" cy="21.2994" r="3.97131" fill="url(#paint58_radial_5803_255)"/>
<circle cx="27.3551" cy="21.2994" r="3.97131" fill="url(#paint59_radial_5803_255)"/>
<circle cx="27.3551" cy="21.2994" r="3.97131" fill="url(#paint60_radial_5803_255)"/>
<circle cx="27.3551" cy="21.2994" r="3.97131" fill="url(#paint61_radial_5803_255)"/>
<circle cx="27.8949" cy="16.6108" r="3.05217" fill="#DAD4E2"/>
<circle cx="27.8949" cy="16.6108" r="3.05217" fill="url(#paint62_radial_5803_255)"/>
<circle cx="27.8949" cy="16.6108" r="3.05217" fill="url(#paint63_radial_5803_255)"/>
<circle cx="27.8949" cy="16.6108" r="3.05217" fill="url(#paint64_radial_5803_255)"/>
<circle cx="27.8949" cy="16.6108" r="3.05217" fill="url(#paint65_radial_5803_255)"/>
<circle cx="25.8627" cy="25.7094" r="5.08436" fill="#DAD4E2"/>
<circle cx="25.8627" cy="25.7094" r="5.08436" fill="url(#paint66_radial_5803_255)"/>
<circle cx="25.8627" cy="25.7094" r="5.08436" fill="url(#paint67_radial_5803_255)"/>
<circle cx="25.8627" cy="25.7094" r="5.08436" fill="url(#paint68_radial_5803_255)"/>
<circle cx="15.1852" cy="25.5211" r="5.72427" fill="#DCD2E7"/>
<circle cx="15.1852" cy="25.5211" r="5.72427" fill="url(#paint69_radial_5803_255)"/>
<circle cx="15.1852" cy="25.5211" r="5.72427" fill="url(#paint70_radial_5803_255)"/>
<circle cx="15.1852" cy="25.5211" r="5.72427" fill="url(#paint71_radial_5803_255)"/>
<circle cx="15.1852" cy="25.5211" r="5.72427" fill="url(#paint72_radial_5803_255)"/>
<circle cx="15.1852" cy="25.5211" r="5.72427" fill="url(#paint73_radial_5803_255)"/>
<circle cx="15.1852" cy="25.5211" r="5.72427" fill="url(#paint74_radial_5803_255)"/>
<circle cx="20.262" cy="27.0745" r="4.28545" fill="#DCD2E7"/>
<circle cx="20.262" cy="27.0745" r="4.28545" fill="url(#paint75_radial_5803_255)"/>
<circle cx="20.262" cy="27.0745" r="4.28545" fill="url(#paint76_radial_5803_255)"/>
<circle cx="20.262" cy="27.0745" r="4.28545" fill="url(#paint77_radial_5803_255)"/>
<circle cx="20.262" cy="27.0745" r="4.28545" fill="url(#paint78_radial_5803_255)"/>
<circle cx="20.262" cy="27.0745" r="4.28545" fill="url(#paint79_radial_5803_255)"/>
<circle cx="16.7287" cy="6.20138" r="2.4045" fill="#DAD4E2"/>
<circle cx="16.7287" cy="6.20138" r="2.4045" fill="url(#paint80_radial_5803_255)"/>
<circle cx="16.7287" cy="6.20138" r="2.4045" fill="url(#paint81_radial_5803_255)"/>
<circle cx="16.7287" cy="6.20138" r="2.4045" fill="url(#paint82_radial_5803_255)"/>
<circle cx="5.09468" cy="10.038" r="4.46772" fill="#DAD4E2"/>
<circle cx="5.09468" cy="10.038" r="4.46772" fill="url(#paint83_radial_5803_255)"/>
<circle cx="5.09468" cy="10.038" r="4.46772" fill="url(#paint84_radial_5803_255)"/>
</g>
<defs>
<radialGradient id="paint0_radial_5803_255" cx="0" cy="0" r="1" gradientUnits="userSpaceOnUse" gradientTransform="translate(25.5 9) rotate(131.878) scale(38.9487)">
<stop stop-color="#FFF478"/>
<stop offset="0.474827" stop-color="#FFB02E"/>
<stop offset="1" stop-color="#F70A8D"/>
</radialGradient>
<radialGradient id="paint1_radial_5803_255" cx="0" cy="0" r="1" gradientUnits="userSpaceOnUse" gradientTransform="translate(16 12.5) rotate(101.31) scale(17.8466 22.8581)">
<stop offset="0.787821" stop-color="#F59639" stop-opacity="0"/>
<stop offset="0.972509" stop-color="#FF7DCE"/>
</radialGradient>
<radialGradient id="paint2_radial_5803_255" cx="0" cy="0" r="1" gradientUnits="userSpaceOnUse" gradientTransform="translate(18 14) rotate(135) scale(41.0122)">
<stop offset="0.314853" stop-opacity="0"/>
<stop offset="1"/>
</radialGradient>
<radialGradient id="paint3_radial_5803_255" cx="0" cy="0" r="1" gradientUnits="userSpaceOnUse" gradientTransform="translate(16 17) rotate(77.692) scale(28.1469)">
<stop offset="0.507903" stop-color="#7D6133" stop-opacity="0"/>
<stop offset="1" stop-color="#715B32"/>
</radialGradient>
<radialGradient id="paint4_radial_5803_255" cx="0" cy="0" r="1" gradientUnits="userSpaceOnUse" gradientTransform="translate(16.5 16.5) rotate(55.7131) scale(13.3135 9.65032)">
<stop stop-color="#FFB849"/>
<stop offset="1" stop-color="#FFB847" stop-opacity="0"/>
</radialGradient>
<radialGradient id="paint5_radial_5803_255" cx="0" cy="0" r="1" gradientUnits="userSpaceOnUse" gradientTransform="translate(17.923 16.8135) rotate(13.3925) scale(11.1558)">
<stop stop-color="#FFCE51"/>
<stop offset="0.900412" stop-color="#FFCE51" stop-opacity="0"/>
</radialGradient>
<radialGradient id="paint6_radial_5803_255" cx="0" cy="0" r="1" gradientUnits="userSpaceOnUse" gradientTransform="translate(17.5 15) rotate(43.9708) scale(59.0529)">
<stop offset="0.185425" stop-opacity="0"/>
<stop offset="1" stop-opacity="0.4"/>
</radialGradient>
<radialGradient id="paint7_radial_5803_255" cx="0" cy="0" r="1" gradientUnits="userSpaceOnUse" gradientTransform="translate(14.502 25.6875) rotate(103.392) scale(5.39676 2.55217)">
<stop offset="0.251641" stop-color="#E4694E"/>
<stop offset="1" stop-color="#E4694E" stop-opacity="0"/>
</radialGradient>
<radialGradient id="paint8_radial_5803_255" cx="0" cy="0" r="1" gradientUnits="userSpaceOnUse" gradientTransform="translate(12.8145 27.375) rotate(73.664) scale(3.7775 3.44384)">
<stop offset="0.362989" stop-color="#E4694E"/>
<stop offset="1" stop-color="#E4694E" stop-opacity="0"/>
</radialGradient>
<radialGradient id="paint9_radial_5803_255" cx="0" cy="0" r="1" gradientUnits="userSpaceOnUse" gradientTransform="translate(25.5 9) rotate(131.878) scale(38.9487)">
<stop stop-color="#FFF478"/>
<stop offset="0.474827" stop-color="#FFB02E"/>
<stop offset="1" stop-color="#F70A8D"/>
</radialGradient>
<radialGradient id="paint10_radial_5803_255" cx="0" cy="0" r="1" gradientUnits="userSpaceOnUse" gradientTransform="translate(16 12.5) rotate(101.31) scale(17.8466 22.8581)">
<stop offset="0.787821" stop-color="#F59639" stop-opacity="0"/>
<stop offset="0.972509" stop-color="#FF7DCE"/>
</radialGradient>
<radialGradient id="paint11_radial_5803_255" cx="0" cy="0" r="1" gradientUnits="userSpaceOnUse" gradientTransform="translate(18 14) rotate(135) scale(41.0122)">
<stop offset="0.314853" stop-opacity="0"/>
<stop offset="1"/>
</radialGradient>
<radialGradient id="paint12_radial_5803_255" cx="0" cy="0" r="1" gradientUnits="userSpaceOnUse" gradientTransform="translate(16 17) rotate(77.692) scale(28.1469)">
<stop offset="0.507903" stop-color="#7D6133" stop-opacity="0"/>
<stop offset="1" stop-color="#715B32"/>
</radialGradient>
<radialGradient id="paint13_radial_5803_255" cx="0" cy="0" r="1" gradientUnits="userSpaceOnUse" gradientTransform="translate(16.5 16.5) rotate(55.7131) scale(13.3135 9.65032)">
<stop stop-color="#FFB849"/>
<stop offset="1" stop-color="#FFB847" stop-opacity="0"/>
</radialGradient>
<radialGradient id="paint14_radial_5803_255" cx="0" cy="0" r="1" gradientUnits="userSpaceOnUse" gradientTransform="translate(17.923 16.8135) rotate(13.3925) scale(11.1558)">
<stop stop-color="#FFCE51"/>
<stop offset="0.900412" stop-color="#FFCE51" stop-opacity="0"/>
</radialGradient>
<radialGradient id="paint15_radial_5803_255" cx="0" cy="0" r="1" gradientUnits="userSpaceOnUse" gradientTransform="translate(17.5 15) rotate(43.9708) scale(59.0529)">
<stop offset="0.185425" stop-opacity="0"/>
<stop offset="1" stop-opacity="0.4"/>
</radialGradient>
<radialGradient id="paint16_radial_5803_255" cx="0" cy="0" r="1" gradientUnits="userSpaceOnUse" gradientTransform="translate(14.502 25.6875) rotate(103.392) scale(5.39676 2.55217)">
<stop offset="0.251641" stop-color="#E4694E"/>
<stop offset="1" stop-color="#E4694E" stop-opacity="0"/>
</radialGradient>
<radialGradient id="paint17_radial_5803_255" cx="0" cy="0" r="1" gradientUnits="userSpaceOnUse" gradientTransform="translate(12.8145 27.375) rotate(73.664) scale(3.7775 3.44384)">
<stop offset="0.362989" stop-color="#E4694E"/>
<stop offset="1" stop-color="#E4694E" stop-opacity="0"/>
</radialGradient>
<linearGradient id="paint18_linear_5803_255" x1="11.2" y1="14.75" x2="10.9649" y2="16.1608" gradientUnits="userSpaceOnUse">
<stop stop-color="#52383E"/>
<stop offset="1" stop-color="#432A35"/>
</linearGradient>
<linearGradient id="paint19_linear_5803_255" x1="23.2" y1="14.75" x2="22.9649" y2="16.1608" gradientUnits="userSpaceOnUse">
<stop stop-color="#52383E"/>
<stop offset="1" stop-color="#432A35"/>
</linearGradient>
<radialGradient id="paint20_radial_5803_255" cx="0" cy="0" r="1" gradientUnits="userSpaceOnUse" gradientTransform="translate(23.8031 25.6146) rotate(152.692) scale(8.52108)">
<stop offset="0.479654" stop-color="#F4804F"/>
<stop offset="1" stop-color="#F4804D" stop-opacity="0"/>
</radialGradient>
<radialGradient id="paint21_radial_5803_255" cx="0" cy="0" r="1" gradientUnits="userSpaceOnUse" gradientTransform="translate(20.625 14.625) rotate(112.068) scale(4.99062)">
<stop offset="0.128607" stop-color="#D0812A"/>
<stop offset="1" stop-color="#CA7420" stop-opacity="0"/>
</radialGradient>
<radialGradient id="paint22_radial_5803_255" cx="0" cy="0" r="1" gradientUnits="userSpaceOnUse" gradientTransform="translate(11.7187 13.5625) rotate(63.2459) scale(4.23458)">
<stop offset="0.533073" stop-color="#D0812A"/>
<stop offset="1" stop-color="#CA7420" stop-opacity="0"/>
</radialGradient>
<radialGradient id="paint23_radial_5803_255" cx="0" cy="0" r="1" gradientUnits="userSpaceOnUse" gradientTransform="translate(16.2314 8.375) rotate(90) scale(3.875 13.373)">
<stop offset="0.128607" stop-color="#D0812A"/>
<stop offset="1" stop-color="#CA7420" stop-opacity="0"/>
</radialGradient>
<radialGradient id="paint24_radial_5803_255" cx="0" cy="0" r="1" gradientUnits="userSpaceOnUse" gradientTransform="translate(3.04668 24.8393) rotate(58.3768) scale(7.39653)">
<stop stop-color="#B8B1C0"/>
<stop offset="0.728912" stop-color="#B79CD2"/>
<stop offset="1" stop-color="#B48ED5"/>
</radialGradient>
<radialGradient id="paint25_radial_5803_255" cx="0" cy="0" r="1" gradientUnits="userSpaceOnUse" gradientTransform="translate(11.7029 27.4455) rotate(159.167) scale(3.75118)">
<stop offset="0.336708" stop-color="#C596D8"/>
<stop offset="1" stop-color="#BC92CE" stop-opacity="0"/>
</radialGradient>
<radialGradient id="paint26_radial_5803_255" cx="0" cy="0" r="1" gradientUnits="userSpaceOnUse" gradientTransform="translate(5.77651 17.8263) rotate(81.7496) scale(12.5401)">
<stop offset="0.262922" stop-color="#E0D7E9" stop-opacity="0"/>
<stop offset="0.561348" stop-color="#D2C1E4"/>
<stop offset="0.787726" stop-color="#B085D3"/>
</radialGradient>
<radialGradient id="paint27_radial_5803_255" cx="0" cy="0" r="1" gradientUnits="userSpaceOnUse" gradientTransform="translate(8.47576 23.3179) rotate(39.8331) scale(8.28257)">
<stop offset="0.647434" stop-color="#C3C1C4" stop-opacity="0"/>
<stop offset="1" stop-color="#C3C1C5"/>
</radialGradient>
<radialGradient id="paint28_radial_5803_255" cx="0" cy="0" r="1" gradientUnits="userSpaceOnUse" gradientTransform="translate(8.81704 20.0602) rotate(122.518) scale(5.88707)">
<stop stop-color="#F5EDF9"/>
<stop offset="0.499111" stop-color="#E2D8EB"/>
<stop offset="0.935229" stop-color="#D2C4E2" stop-opacity="0"/>
</radialGradient>
<radialGradient id="paint29_radial_5803_255" cx="0" cy="0" r="1" gradientUnits="userSpaceOnUse" gradientTransform="translate(11.5473 25.5828) rotate(112.469) scale(5.43909 3.20771)">
<stop offset="0.420421" stop-color="#AC7FD1"/>
<stop offset="1" stop-color="#AB82CF" stop-opacity="0"/>
</radialGradient>
<radialGradient id="paint30_radial_5803_255" cx="0" cy="0" r="1" gradientUnits="userSpaceOnUse" gradientTransform="translate(11.7955 23.8143) rotate(116.565) scale(5.34195 3.94055)">
<stop offset="0.45974" stop-color="#C4BECC"/>
<stop offset="0.734105" stop-color="#CFC7D5" stop-opacity="0"/>
</radialGradient>
<radialGradient id="paint31_radial_5803_255" cx="0" cy="0" r="1" gradientUnits="userSpaceOnUse" gradientTransform="translate(4.22522 18.3692) rotate(65.8391) scale(1.81925 2.60906)">
<stop offset="0.565913" stop-color="#B8A1CF"/>
<stop offset="0.990277" stop-color="#B9A3D0" stop-opacity="0"/>
</radialGradient>
<radialGradient id="paint32_radial_5803_255" cx="0" cy="0" r="1" gradientUnits="userSpaceOnUse" gradientTransform="translate(11.8576 24.3727) rotate(106.336) scale(5.62561 4.34385)">
<stop offset="0.343484" stop-color="#F0EAF3"/>
<stop offset="0.643484" stop-color="#F9F5FA" stop-opacity="0"/>
</radialGradient>
<radialGradient id="paint33_radial_5803_255" cx="0" cy="0" r="1" gradientUnits="userSpaceOnUse" gradientTransform="translate(7.63806 18.0124) rotate(136.685) scale(2.98494 2.02321)">
<stop stop-color="#FDEFFD"/>
<stop offset="1" stop-color="#E3D7EF" stop-opacity="0"/>
</radialGradient>
<radialGradient id="paint34_radial_5803_255" cx="0" cy="0" r="1" gradientUnits="userSpaceOnUse" gradientTransform="translate(2.55013 19.6422) rotate(-58.0298) scale(8.0278 10.424)">
<stop offset="0.107369" stop-color="#B093CD"/>
<stop offset="0.363406" stop-color="#CEC2DB"/>
<stop offset="0.46909" stop-color="#D9CFE3"/>
<stop offset="0.96233" stop-color="#F6EAF7"/>
</radialGradient>
<radialGradient id="paint35_radial_5803_255" cx="0" cy="0" r="1" gradientUnits="userSpaceOnUse" gradientTransform="translate(6.42836 16.9274) rotate(126.98) scale(6.56562)">
<stop offset="0.41498" stop-color="#CECDCE" stop-opacity="0"/>
<stop offset="1" stop-color="#CECDCE"/>
</radialGradient>
<radialGradient id="paint36_radial_5803_255" cx="0" cy="0" r="1" gradientUnits="userSpaceOnUse" gradientTransform="translate(4.72193 13.6077) rotate(75.0049) scale(1.7987 2.63404)">
<stop offset="0.426697" stop-color="#BBA5D1"/>
<stop offset="1" stop-color="#B8A1CF" stop-opacity="0"/>
</radialGradient>
<radialGradient id="paint37_radial_5803_255" cx="0" cy="0" r="1" gradientUnits="userSpaceOnUse" gradientTransform="translate(3.82218 15.9346) rotate(46.8823) scale(4.67544 8.1279)">
<stop offset="0.685649" stop-color="#EEE0FB" stop-opacity="0"/>
<stop offset="1" stop-color="#ECDEFA"/>
</radialGradient>
<radialGradient id="paint38_radial_5803_255" cx="0" cy="0" r="1" gradientUnits="userSpaceOnUse" gradientTransform="translate(7.9176 17.8582) rotate(139.364) scale(2.7393 0.491334)">
<stop stop-color="#F8EBFA"/>
<stop offset="1" stop-color="#F7EAFA" stop-opacity="0"/>
</radialGradient>
<radialGradient id="paint39_radial_5803_255" cx="0" cy="0" r="1" gradientUnits="userSpaceOnUse" gradientTransform="translate(8.66252 6.56413) rotate(120.414) scale(9.38693)">
<stop offset="0.41498" stop-color="#CECDCE" stop-opacity="0"/>
<stop offset="0.768531" stop-color="#CECDCE"/>
</radialGradient>
<radialGradient id="paint40_radial_5803_255" cx="0" cy="0" r="1" gradientUnits="userSpaceOnUse" gradientTransform="translate(9.28304 2.77898) rotate(123.69) scale(5.59327)">
<stop stop-color="#F4F0F3"/>
<stop offset="1" stop-color="#F2ECEF" stop-opacity="0"/>
</radialGradient>
<radialGradient id="paint41_radial_5803_255" cx="0" cy="0" r="1" gradientUnits="userSpaceOnUse" gradientTransform="translate(11.641 4.54745) rotate(131.566) scale(4.39561 3.19342)">
<stop offset="0.753293" stop-color="#D1D0D1"/>
<stop offset="1" stop-color="#CDCACD" stop-opacity="0"/>
</radialGradient>
<radialGradient id="paint42_radial_5803_255" cx="0" cy="0" r="1" gradientUnits="userSpaceOnUse" gradientTransform="translate(10.5241 9.29441) rotate(-105.843) scale(4.77315)">
<stop offset="0.0671753" stop-color="#BC9FC1"/>
<stop offset="0.937406" stop-color="#BDA2C5" stop-opacity="0"/>
</radialGradient>
<radialGradient id="paint43_radial_5803_255" cx="0" cy="0" r="1" gradientUnits="userSpaceOnUse" gradientTransform="translate(20.3593 10.7516) rotate(-74.1534) scale(9.8851 16.2926)">
<stop offset="0.104945" stop-color="#B796D8"/>
<stop offset="0.513939" stop-color="#DAD5DF"/>
<stop offset="0.937406" stop-color="#FEFBFF"/>
</radialGradient>
<radialGradient id="paint44_radial_5803_255" cx="0" cy="0" r="1" gradientUnits="userSpaceOnUse" gradientTransform="translate(21.6885 5.923) rotate(123.354) scale(8.40573)">
<stop offset="0.550569" stop-color="#CECDCE" stop-opacity="0"/>
<stop offset="0.719514" stop-color="#CECDCE"/>
</radialGradient>
<radialGradient id="paint45_radial_5803_255" cx="0" cy="0" r="1" gradientUnits="userSpaceOnUse" gradientTransform="translate(21.6624 4.17413) rotate(127.185) scale(3.38808 1.36065)">
<stop offset="0.41114" stop-color="#CFCDCF"/>
<stop offset="1" stop-color="#D4D3D4" stop-opacity="0"/>
</radialGradient>
<radialGradient id="paint46_radial_5803_255" cx="0" cy="0" r="1" gradientUnits="userSpaceOnUse" gradientTransform="translate(17.629 3.83285) rotate(62.1759) scale(1.89442 1.60961)">
<stop offset="0.267208" stop-color="white"/>
<stop offset="1" stop-color="white" stop-opacity="0"/>
</radialGradient>
<radialGradient id="paint47_radial_5803_255" cx="0" cy="0" r="1" gradientUnits="userSpaceOnUse" gradientTransform="translate(11.8896 11.0614) rotate(-48.3793) scale(11.5378)">
<stop offset="0.141308" stop-color="#B796D8"/>
<stop offset="0.522425" stop-color="#E2DBEB"/>
<stop offset="0.937406" stop-color="#FEFBFF"/>
</radialGradient>
<radialGradient id="paint48_radial_5803_255" cx="0" cy="0" r="1" gradientUnits="userSpaceOnUse" gradientTransform="translate(15.7368 4.35982) rotate(119.872) scale(9.61851)">
<stop offset="0.30331" stop-color="#CECDCE" stop-opacity="0"/>
<stop offset="0.758759" stop-color="#CECDCE"/>
</radialGradient>
<radialGradient id="paint49_radial_5803_255" cx="0" cy="0" r="1" gradientUnits="userSpaceOnUse" gradientTransform="translate(9.59365 8.57934) rotate(-17.6676) scale(8.79166 28.0956)">
<stop offset="0.811996" stop-color="#FEFEFE" stop-opacity="0"/>
<stop offset="1" stop-color="white"/>
</radialGradient>
<radialGradient id="paint50_radial_5803_255" cx="0" cy="0" r="1" gradientUnits="userSpaceOnUse" gradientTransform="translate(14.9611 5.56983) rotate(105.255) scale(2.47624 1.80653)">
<stop offset="0.28685" stop-color="#DAD7DD"/>
<stop offset="0.764565" stop-color="#DCD9DF" stop-opacity="0"/>
</radialGradient>
<radialGradient id="paint51_radial_5803_255" cx="0" cy="0" r="1" gradientUnits="userSpaceOnUse" gradientTransform="translate(15.8919 7.49344) rotate(130.533) scale(2.8167)">
<stop offset="0.161071" stop-color="#C3A7CD"/>
<stop offset="1" stop-color="#BEA4C8" stop-opacity="0"/>
</radialGradient>
<radialGradient id="paint52_radial_5803_255" cx="0" cy="0" r="1" gradientUnits="userSpaceOnUse" gradientTransform="translate(31.1252 10.3489) rotate(136.305) scale(7.46654)">
<stop offset="0.144734" stop-color="white"/>
<stop offset="0.398562" stop-color="#F1EEF4"/>
<stop offset="1" stop-color="#C2A9BD"/>
</radialGradient>
<radialGradient id="paint53_radial_5803_255" cx="0" cy="0" r="1" gradientUnits="userSpaceOnUse" gradientTransform="translate(27.3711 10.6591) rotate(146.31) scale(3.57969 1.99532)">
<stop stop-color="#AC89AD"/>
<stop offset="1" stop-color="#C3A8C2" stop-opacity="0"/>
</radialGradient>
<radialGradient id="paint54_radial_5803_255" cx="0" cy="0" r="1" gradientUnits="userSpaceOnUse" gradientTransform="translate(30.9701 10.3799) rotate(82.5042) scale(2.37829 0.893681)">
<stop offset="0.208658" stop-color="#FFFDFF"/>
<stop offset="1" stop-color="white" stop-opacity="0"/>
</radialGradient>
<radialGradient id="paint55_radial_5803_255" cx="0" cy="0" r="1" gradientUnits="userSpaceOnUse" gradientTransform="translate(21.259 14.8775) rotate(-44.6011) scale(15.6577)">
<stop offset="0.254767" stop-color="#C9B2CE"/>
<stop offset="0.549019" stop-color="#DCD2E9"/>
<stop offset="0.889497" stop-color="#FEFBFF"/>
</radialGradient>
<radialGradient id="paint56_radial_5803_255" cx="0" cy="0" r="1" gradientUnits="userSpaceOnUse" gradientTransform="translate(28.5394 7.21508) rotate(123.354) scale(10.8663 11.5264)">
<stop offset="0.476435" stop-color="#CECDCE" stop-opacity="0"/>
<stop offset="0.746538" stop-color="#CECDCE"/>
</radialGradient>
<radialGradient id="paint57_radial_5803_255" cx="0" cy="0" r="1" gradientUnits="userSpaceOnUse" gradientTransform="translate(30.2565 3.3669) rotate(146.505) scale(2.52989 9.99248)">
<stop offset="0.277486" stop-color="white"/>
<stop offset="1" stop-color="white" stop-opacity="0"/>
</radialGradient>
<radialGradient id="paint58_radial_5803_255" cx="0" cy="0" r="1" gradientUnits="userSpaceOnUse" gradientTransform="translate(32.2106 18.2899) rotate(136.245) scale(10.0941 6.23114)">
<stop offset="0.266084" stop-color="#FFFEFF"/>
<stop offset="0.441852" stop-color="#E9DFF4"/>
<stop offset="1" stop-color="#C8BAC3"/>
</radialGradient>
<radialGradient id="paint59_radial_5803_255" cx="0" cy="0" r="1" gradientUnits="userSpaceOnUse" gradientTransform="translate(28.3324 22.6025) rotate(125.463) scale(2.78076 3.24421)">
<stop offset="0.622222" stop-color="white"/>
<stop offset="1" stop-color="white" stop-opacity="0"/>
</radialGradient>
<radialGradient id="paint60_radial_5803_255" cx="0" cy="0" r="1" gradientUnits="userSpaceOnUse" gradientTransform="translate(27.7119 18.8174) rotate(110.433) scale(1.68856 2.73181)">
<stop offset="0.155638" stop-color="#E4DDE9"/>
<stop offset="1" stop-color="#E3DCE9" stop-opacity="0"/>
</radialGradient>
<radialGradient id="paint61_radial_5803_255" cx="0" cy="0" r="1" gradientUnits="userSpaceOnUse" gradientTransform="translate(30.9696 18.7863) rotate(70.416) scale(3.42481 1.05176)">
<stop offset="0.484858" stop-color="white"/>
<stop offset="1" stop-color="white" stop-opacity="0"/>
</radialGradient>
<radialGradient id="paint62_radial_5803_255" cx="0" cy="0" r="1" gradientUnits="userSpaceOnUse" gradientTransform="translate(26.2855 21.827) rotate(-56.3831) scale(8.42002)">
<stop offset="0.509103" stop-color="#E0D5EC"/>
<stop offset="0.973054" stop-color="#FEFBFF"/>
</radialGradient>
<radialGradient id="paint63_radial_5803_255" cx="0" cy="0" r="1" gradientUnits="userSpaceOnUse" gradientTransform="translate(29.264 16.6108) rotate(103.913) scale(5.69352 5.77357)">
<stop offset="0.360629" stop-color="#C8BCC9" stop-opacity="0"/>
<stop offset="1" stop-color="#C7BAC7"/>
</radialGradient>
<radialGradient id="paint64_radial_5803_255" cx="0" cy="0" r="1" gradientUnits="userSpaceOnUse" gradientTransform="translate(25.5409 17.4213) rotate(143.13) scale(6.20517 7.14298)">
<stop offset="0.687334" stop-color="white" stop-opacity="0"/>
<stop offset="0.89" stop-color="white"/>
</radialGradient>
<radialGradient id="paint65_radial_5803_255" cx="0" cy="0" r="1" gradientUnits="userSpaceOnUse" gradientTransform="translate(27.8949 14.8462) rotate(93.3642) scale(5.74969 6.48004)">
<stop offset="0.648404" stop-color="white" stop-opacity="0"/>
<stop offset="0.936977" stop-color="#E2DAEA"/>
</radialGradient>
<radialGradient id="paint66_radial_5803_255" cx="0" cy="0" r="1" gradientUnits="userSpaceOnUse" gradientTransform="translate(28.3331 21.8583) rotate(120.75) scale(11.4081)">
<stop offset="0.0966386" stop-color="#FBF8FD"/>
<stop offset="0.565616" stop-color="#DDCEED"/>
<stop offset="0.726525" stop-color="#C29FE2"/>
<stop offset="0.847533" stop-color="#9F63D3"/>
</radialGradient>
<radialGradient id="paint67_radial_5803_255" cx="0" cy="0" r="1" gradientUnits="userSpaceOnUse" gradientTransform="translate(22.3451 26.0157) rotate(59.3311) scale(3.10212 3.18579)">
<stop offset="0.640888" stop-color="white"/>
<stop offset="1" stop-color="white" stop-opacity="0"/>
</radialGradient>
<radialGradient id="paint68_radial_5803_255" cx="0" cy="0" r="1" gradientUnits="userSpaceOnUse" gradientTransform="translate(28.6744 21.8273) rotate(137.121) scale(1.1855 4.73584)">
<stop stop-color="white"/>
<stop offset="1" stop-color="white" stop-opacity="0"/>
</radialGradient>
<radialGradient id="paint69_radial_5803_255" cx="0" cy="0" r="1" gradientUnits="userSpaceOnUse" gradientTransform="translate(14.2857 20.6351) rotate(81.7496) scale(13.2209)">
<stop offset="0.262922" stop-color="#E0D7E9" stop-opacity="0"/>
<stop offset="0.561348" stop-color="#D2C1E4"/>
<stop offset="0.787726" stop-color="#B085D3"/>
</radialGradient>
<radialGradient id="paint70_radial_5803_255" cx="0" cy="0" r="1" gradientUnits="userSpaceOnUse" gradientTransform="translate(16.4185 26.8553) rotate(34.836) scale(9.0383)">
<stop offset="0.506853" stop-color="#C3C1C4" stop-opacity="0"/>
<stop offset="1" stop-color="#C3C1C5"/>
</radialGradient>
<radialGradient id="paint71_radial_5803_255" cx="0" cy="0" r="1" gradientUnits="userSpaceOnUse" gradientTransform="translate(17.6595 21.6429) rotate(115.934) scale(10.074)">
<stop stop-color="#FCFCFC"/>
<stop offset="0.5081" stop-color="#E2D8EB"/>
<stop offset="0.935229" stop-color="#D2C4E2" stop-opacity="0"/>
</radialGradient>
<radialGradient id="paint72_radial_5803_255" cx="0" cy="0" r="1" gradientUnits="userSpaceOnUse" gradientTransform="translate(17.9388 28.5617) rotate(100.008) scale(5.3559 3.72037)">
<stop offset="0.473154" stop-color="#B48CD9"/>
<stop offset="1" stop-color="#B489DA" stop-opacity="0"/>
</radialGradient>
<radialGradient id="paint73_radial_5803_255" cx="0" cy="0" r="1" gradientUnits="userSpaceOnUse" gradientTransform="translate(17.5664 26.3588) rotate(126.541) scale(4.32508 2.72622)">
<stop offset="0.0195742" stop-color="#CDC8D3"/>
<stop offset="1" stop-color="#C9C3CF" stop-opacity="0"/>
</radialGradient>
<radialGradient id="paint74_radial_5803_255" cx="0" cy="0" r="1" gradientUnits="userSpaceOnUse" gradientTransform="translate(17.6905 26.545) rotate(102.572) scale(4.41854 3.46957)">
<stop offset="0.24614" stop-color="white"/>
<stop offset="0.570993" stop-color="#FEFDFE" stop-opacity="0"/>
</radialGradient>
<radialGradient id="paint75_radial_5803_255" cx="0" cy="0" r="1" gradientUnits="userSpaceOnUse" gradientTransform="translate(20.0177 23.4406) rotate(99.0684) scale(9.6455)">
<stop offset="0.262922" stop-color="#E0D7E9" stop-opacity="0"/>
<stop offset="0.5827" stop-color="#D2C1E4"/>
<stop offset="0.802483" stop-color="#B085D3"/>
</radialGradient>
<radialGradient id="paint76_radial_5803_255" cx="0" cy="0" r="1" gradientUnits="userSpaceOnUse" gradientTransform="translate(21.7191 27.751) rotate(39.8331) scale(6.53731)">
<stop offset="0.647434" stop-color="#C3C1C4" stop-opacity="0"/>
<stop offset="1" stop-color="#C3C1C5"/>
</radialGradient>
<radialGradient id="paint77_radial_5803_255" cx="0" cy="0" r="1" gradientUnits="userSpaceOnUse" gradientTransform="translate(23.1823 25.4263) rotate(135) scale(7.32749)">
<stop stop-color="#F6F2FA"/>
<stop offset="0.935229" stop-color="#C9AFE3" stop-opacity="0"/>
</radialGradient>
<radialGradient id="paint78_radial_5803_255" cx="0" cy="0" r="1" gradientUnits="userSpaceOnUse" gradientTransform="translate(19.149 27.9394) rotate(147.953) scale(9.00456)">
<stop offset="0.414608" stop-color="white" stop-opacity="0"/>
<stop offset="1" stop-color="white"/>
</radialGradient>
<radialGradient id="paint79_radial_5803_255" cx="0" cy="0" r="1" gradientUnits="userSpaceOnUse" gradientTransform="translate(24.5475 24.7747) rotate(149.91) scale(3.83681 13.0042)">
<stop offset="0.127351" stop-color="white"/>
<stop offset="0.496999" stop-color="white" stop-opacity="0"/>
</radialGradient>
<radialGradient id="paint80_radial_5803_255" cx="0" cy="0" r="1" gradientUnits="userSpaceOnUse" gradientTransform="translate(14.8051 10.196) rotate(-46.1017) scale(6.84611)">
<stop offset="0.0671753" stop-color="#B796D8"/>
<stop offset="0.605177" stop-color="#E2DBEB"/>
<stop offset="0.924104" stop-color="#FEFBFF"/>
</radialGradient>
<radialGradient id="paint81_radial_5803_255" cx="0" cy="0" r="1" gradientUnits="userSpaceOnUse" gradientTransform="translate(19.7382 5.10772) rotate(130.07) scale(6.90597)">
<stop offset="0.278814" stop-color="#CECDCE" stop-opacity="0"/>
<stop offset="1" stop-color="#CECCD1"/>
</radialGradient>
<radialGradient id="paint82_radial_5803_255" cx="0" cy="0" r="1" gradientUnits="userSpaceOnUse" gradientTransform="translate(15.6738 6.20138) rotate(177.805) scale(4.6573 6.42544)">
<stop offset="0.51924" stop-color="white" stop-opacity="0"/>
<stop offset="1" stop-color="white"/>
</radialGradient>
<radialGradient id="paint83_radial_5803_255" cx="0" cy="0" r="1" gradientUnits="userSpaceOnUse" gradientTransform="translate(2.64363 14.7229) rotate(-41.8603) scale(10.4145)">
<stop offset="0.0671753" stop-color="#B796D8"/>
<stop offset="0.522425" stop-color="#E2DBEB"/>
<stop offset="0.937406" stop-color="#FEFBFF"/>
</radialGradient>
<radialGradient id="paint84_radial_5803_255" cx="0" cy="0" r="1" gradientUnits="userSpaceOnUse" gradientTransform="translate(7.26649 10.4724) rotate(123.354) scale(8.80309)">
<stop offset="0.41498" stop-color="#CECDCE" stop-opacity="0"/>
<stop offset="1" stop-color="#CECDCE"/>
</radialGradient>
<clipPath id="clip0_5803_255">
<rect width="32" height="32" rx="4" fill="white"/>
</clipPath>
</defs>
</svg>
